<svg width="1176px" height="1039px" viewBox="-431 171 1176 1039" version="1.1" xmlns="http://www.w3.org/2000/svg" xmlns:xlink="http://www.w3.org/1999/xlink">
    <!-- Generator: Sketch 41 (35326) - http://www.bohemiancoding.com/sketch -->
    <path d="M198.574557,696.87071 C208.206134,695.963756 217.403551,693.562409 225.933045,689.900693 L370.19272,834.160368 C363.452152,846.924818 359.635458,861.475522 359.635458,876.918661 C359.635458,927.517022 400.607634,968.535098 451.149374,968.535098 C501.691113,968.535098 542.663289,927.517022 542.663289,876.918661 C542.663289,826.3203 501.691113,785.302224 451.149374,785.302224 C441.831576,785.302224 432.839029,786.696348 424.368501,789.287608 L274.856066,639.775173 C279.084266,629.23131 281.410824,617.718049 281.410824,605.660782 C281.410824,555.062421 240.438648,514.044345 189.896908,514.044345 C177.816883,514.044345 166.28353,516.387552 155.725614,520.644721 L-98.5696779,266.349429 L-148.093948,315.873699 L105.710933,569.678581 C100.994036,580.724953 98.3829929,592.887605 98.3829929,605.660782 C98.3829929,634.075446 111.304143,659.468832 131.585045,676.273313 L53.192213,968.839357 C4.69890977,971.143224 -33.9108087,1011.23329 -33.9108087,1060.35124 C-33.9108087,1110.9496 7.06136683,1151.96768 57.6031067,1151.96768 C108.144847,1151.96768 149.117022,1110.9496 149.117022,1060.35124 C149.117022,1033.55561 137.626384,1009.44677 119.308999,992.693829 L198.574557,696.87071 Z" id="BG-Decorations" stroke="none" fill="#C7CCD0" fill-rule="evenodd" transform="translate(197.284670, 709.158555) scale(-1, 1) rotate(65.000000) translate(-197.284670, -709.158555) "></path>
</svg>
