<svg width="640px" height="210px" viewBox="425 65 640 210" version="1.1" xmlns="http://www.w3.org/2000/svg" xmlns:xlink="http://www.w3.org/1999/xlink">
    <!-- Generator: Sketch 41 (35326) - http://www.bohemiancoding.com/sketch -->
    <g id="GS-LargeLogo" stroke="none" stroke-width="1" fill="none" fill-rule="evenodd" transform="translate(425.000000, 72.000000)">
        <g id="Logo" transform="translate(520.000000, 0.000000)">
            <ellipse id="Oval" fill="#FF6300" cx="59.8117816" cy="59.8787879" rx="59.8117816" ry="59.8787879"></ellipse>
            <path d="M59.6222663,47.3152116 C60.358831,47.0994378 61.0671161,46.8174744 61.7402449,46.4761983 L77.7746211,62.5105745 C77.2501434,63.8880057 76.9629322,65.3824631 76.9629322,66.9440023 C76.9629322,73.826457 82.5422641,79.4057888 89.4247188,79.4057888 C96.3071735,79.4057888 101.886505,73.826457 101.886505,66.9440023 C101.886505,60.0615476 96.3071735,54.4822157 89.4247188,54.4822157 C87.2651702,54.4822157 85.2339209,55.0315307 83.4630757,55.9980561 L67.6173427,40.1523231 C68.2339253,38.6755533 68.5744563,37.054769 68.5744563,35.3544493 C68.5744563,28.4719946 62.9951244,22.8926627 56.1126697,22.8926627 C54.41235,22.8926627 52.7915656,23.2331937 51.3147959,23.8497763 L29.6738145,2.20879499 L23.5733281,8.30928146 L44.9909207,29.7268741 C44.1338671,31.4173161 43.6508831,33.3294792 43.6508831,35.3544493 C43.6508831,40.4129146 46.6648122,44.767439 50.9948756,46.7202279 L50.9948756,82.7873889 C46.1575005,84.4996141 42.6922842,89.1142414 42.6922842,94.5382134 C42.6922842,101.420668 48.2716161,107 55.1540707,107 C62.0365254,107 67.6158573,101.420668 67.6158573,94.5382134 C67.6158573,89.2304456 64.2975293,84.6977148 59.6222663,82.901414 L59.6222663,47.3152116 Z" id="Combined-Shape" fill="#FFFFFF"></path>
            <path d="M12.3422676,90.9576023 C6.42763362,85.4480729 13.385081,93.1496877 11.4787227,105.087395 C9.57236432,117.025103 3.47881227,121.369731 2.66624319,124.748674 C2.66624319,126.351877 17.0606658,120.904072 24.3567748,119.576455 C31.6528838,118.248838 31.6972782,117.10937 54.5783313,119.576455 C77.4593845,122.043539 18.2569016,96.4671317 12.3422676,90.9576023 Z" id="Path-2" fill="#FF6300"></path>
        </g>
        <g id="GitSocial" transform="translate(0.000000, 47.000000)" font-size="129.6" font-family="Lato-Bold, Lato" font-weight="bold">
            <text id="Social" fill="#434141">
                <tspan x="178.689655" y="128">Social</tspan>
            </text>
            <text id="Git" fill="#FF6300">
                <tspan x="0" y="128">Git</tspan>
            </text>
        </g>
    </g>
</svg>
